<svg xmlns="http://www.w3.org/2000/svg" width="1024" height="1024" viewBox="0 0 1024 1024">
<g>
<path d="M 648.80 564.19 C645.48,566.08 414.00,566.49 406.41,564.62 C397.24,562.35 388.73,555.21 384.97,546.62 C383.31,542.83 362.97,457.46 333.01,328.50 C316.91,259.17 316.09,255.86 314.40,253.25 C312.96,251.01 312.86,251.00 285.23,250.94 C266.45,250.91 256.40,250.50 254.09,249.69 C249.31,248.02 246.50,243.85 246.50,238.45 C246.50,234.80 247.07,233.47 249.77,230.77 L 253.04 227.50 L 285.27 227.50 C317.02,227.50 317.57,227.54 322.24,229.83 C327.67,232.51 333.91,239.14 336.78,245.28 C337.87,247.60 350.96,301.92 365.88,366.00 C380.80,430.08 393.45,483.51 393.98,484.75 L 394.96 487.00 L 508.23 486.90 C570.53,486.85 622.58,486.50 623.91,486.13 C624.40,485.99 624.82,485.93 625.20,485.78 C627.97,484.70 628.96,479.03 643.42,406.50 C649.78,374.60 656.56,340.75 658.49,331.27 C662.47,311.72 662.71,307.89 660.25,303.10 C658.92,300.53 657.27,299.26 653.39,297.84 C646.93,295.47 645.17,293.50 644.39,287.79 C643.81,283.57 644.02,282.95 647.31,279.37 C650.71,275.65 651.10,275.50 657.19,275.52 C667.81,275.54 675.39,281.26 681.21,293.66 C682.07,295.50 682.82,297.00 683.38,298.56 C686.47,307.04 684.41,317.39 668.99,394.87 C668.53,397.19 668.06,399.56 667.57,402.00 C657.89,450.67 649.44,491.81 648.79,493.42 C646.92,498.06 637.78,506.52 632.36,508.62 C627.72,510.41 622.36,510.51 513.75,510.77 C451.19,510.92 400.00,511.37 400.01,511.77 C400.04,514.40 406.17,536.60 407.37,538.45 C408.30,539.87 410.29,540.95 412.68,541.35 C414.78,541.69 468.49,541.98 532.03,541.99 C635.09,542.00 647.80,542.17 649.78,543.56 C652.65,545.57 655.00,550.14 655.00,553.70 C654.99,557.16 651.88,562.43 648.80,564.19 ZM 618.99 640.43 C600.08,648.91 578.09,640.10 570.96,621.20 C566.57,609.58 569.72,593.85 578.33,584.32 C585.10,576.83 597.95,572.12 608.29,573.35 C625.10,575.34 639.45,591.56 639.40,608.50 C639.36,622.24 631.25,634.92 618.99,640.43 ZM 446.84 640.01 C441.60,642.80 439.29,643.41 433.03,643.67 C420.51,644.19 410.23,639.37 402.78,629.50 C397.34,622.29 395.67,616.48 396.21,606.63 C396.76,596.41 400.27,588.74 407.26,582.46 C413.99,576.40 421.47,573.67 431.50,573.61 C438.13,573.57 440.48,574.01 445.24,576.22 C452.20,579.45 459.73,586.75 463.04,593.50 C466.56,600.68 467.01,613.26 464.03,621.20 C461.24,628.65 454.67,635.83 446.84,640.01 ZM 489.39 808.25 C488.89,809.91 486.81,810.38 484.40,809.39 C483.79,809.14 483.51,807.78 483.78,806.37 L 484.27 803.81 L 481.02 805.49 C474.45,808.89 466.39,807.23 460.81,801.34 C455.51,795.73 454.43,786.87 458.12,779.25 C463.55,768.04 479.37,765.56 486.93,774.73 L 489.88 778.31 L 490.55 775.66 C491.12,773.40 491.60,773.11 493.86,773.65 C495.31,774.00 496.61,774.37 496.75,774.47 C497.00,774.66 490.43,804.83 489.39,808.25 ZM 425.98 782.39 C420.52,784.58 417.41,784.41 411.34,781.58 C404.62,778.45 401.00,772.69 401.00,765.12 C401.00,753.12 409.33,745.41 421.45,746.18 C431.72,746.83 438.32,753.87 438.36,764.22 C438.39,770.04 437.87,770.62 434.59,768.46 C432.78,767.28 432.00,765.89 432.00,763.84 C432.00,754.17 421.14,748.73 412.91,754.28 C404.18,760.17 405.10,771.95 414.64,776.16 C418.32,777.79 419.69,777.96 422.23,777.07 C424.69,776.21 425.81,776.30 427.67,777.52 C430.92,779.65 430.61,780.54 425.98,782.39 ZM 617.51 779.14 C612.53,781.40 612.47,781.40 607.06,778.94 L 602.63 776.93 L 604.80 774.76 C606.77,772.79 607.29,772.70 610.45,773.85 C613.15,774.82 614.45,774.84 616.22,773.93 C620.09,771.93 623.00,768.75 623.00,766.53 C623.00,761.52 618.41,760.77 608.67,764.17 C601.70,766.60 598.23,766.24 594.99,762.76 C590.70,758.16 591.20,752.60 596.36,747.44 C598.14,745.66 601.51,743.63 603.83,742.93 C607.50,741.83 608.55,741.89 611.65,743.37 C615.14,745.03 615.19,745.13 613.45,747.05 C612.09,748.56 610.90,748.88 608.45,748.43 C600.58,746.95 594.42,755.48 600.87,758.93 C602.10,759.59 604.68,759.15 609.56,757.44 C620.62,753.57 624.12,754.40 627.94,761.81 C630.56,766.88 625.32,775.59 617.51,779.14 ZM 469.32 800.06 C474.47,802.40 475.31,802.42 479.72,800.33 C489.95,795.48 489.43,779.01 478.95,775.87 C463.61,771.27 454.77,793.45 469.32,800.06 ZM 600.07 619.27 C603.96,621.28 606.87,620.89 611.04,617.81 C617.21,613.25 617.15,604.83 610.91,599.57 C606.37,595.75 601.03,596.03 596.35,600.32 C593.27,603.14 592.73,604.28 592.73,607.90 C592.73,612.96 595.17,616.74 600.07,619.27 ZM 427.50 619.58 C432.43,621.76 438.00,619.07 441.41,612.86 C443.86,608.39 443.01,604.81 438.41,600.21 C435.24,597.04 434.56,596.79 430.43,597.25 C425.31,597.83 422.34,600.04 420.35,604.76 C417.95,610.42 420.98,616.70 427.50,619.58 ZM 577.57 798.88 C577.28,799.36 576.10,800.00 574.96,800.30 C574.85,800.33 574.75,800.36 574.66,800.38 C574.28,800.49 573.98,800.57 573.69,800.53 C572.48,800.34 571.64,797.80 566.85,784.50 C564.67,778.45 562.51,773.12 562.04,772.65 C561.58,772.18 559.55,772.39 557.54,773.12 C554.42,774.25 553.76,774.23 552.96,772.97 C551.31,770.36 551.92,769.33 556.12,767.69 C558.66,766.69 560.05,765.58 559.75,764.78 C557.15,758.00 555.66,753.01 556.09,752.57 C556.39,752.28 557.65,751.92 558.90,751.77 C560.82,751.54 561.48,752.34 563.21,757.00 C564.33,760.03 565.58,762.87 565.99,763.32 C566.40,763.77 568.44,763.43 570.52,762.56 C570.70,762.48 570.87,762.41 571.03,762.34 C573.02,761.51 573.92,761.13 574.45,761.42 C574.93,761.69 575.09,762.52 575.48,764.07 C576.07,766.40 575.74,766.76 572.06,767.86 C569.83,768.53 568.00,769.36 568.00,769.70 C568.00,770.03 570.28,776.54 573.06,784.16 C575.84,791.77 577.87,798.40 577.57,798.88 ZM 528.40 797.75 L 529.05 811.00 L 526.49 811.00 C525.09,811.00 523.74,810.44 523.51,809.75 C523.10,808.56 520.00,778.12 520.00,775.32 C520.00,774.52 521.18,774.00 523.00,774.00 C525.43,774.00 526.01,774.42 526.03,776.25 L 526.07 778.50 L 527.82 776.40 C530.16,773.60 533.30,772.00 536.43,772.00 C538.70,772.00 539.00,772.41 539.00,775.50 C539.00,778.82 538.82,779.00 535.57,779.00 C533.03,779.00 531.58,779.71 529.95,781.75 C527.86,784.37 527.79,785.11 528.40,797.75 Z" fill="rgb(85,67,63)"/>
<path d="M 470.28 460.92 C460.50,464.19 452.49,463.38 449.66,458.83 C448.85,457.54 449.27,456.24 451.56,453.03 C452.04,452.35 452.49,451.72 452.90,451.15 C455.99,446.82 456.92,445.51 456.63,445.13 C456.51,444.97 456.16,444.98 455.66,444.99 C455.50,445.00 455.34,445.00 455.16,445.00 C454.01,445.00 451.59,446.28 449.78,447.85 C444.77,452.21 442.51,453.14 439.63,452.05 C435.98,450.66 434.61,447.35 434.66,440.00 C434.74,428.88 441.93,414.75 454.30,401.39 L 459.96 395.28 L 453.23 393.62 C449.53,392.70 442.32,389.92 437.21,387.44 C418.24,378.21 402.87,358.27 409.57,351.57 C411.53,349.61 413.60,349.59 419.00,351.50 C424.43,353.42 425.22,353.39 424.82,351.28 C424.63,350.34 422.02,348.19 419.01,346.50 C409.69,341.30 409.94,335.67 419.70,330.86 C423.98,328.75 425.79,328.51 436.50,328.60 C450.96,328.71 461.14,331.39 475.76,338.93 C480.91,341.59 484.89,343.25 484.62,342.63 C477.98,327.77 476.04,319.24 476.03,305.00 C476.03,288.34 480.19,275.15 487.86,267.48 C494.59,260.74 498.46,261.84 499.89,270.88 C500.94,277.52 502.53,279.36 503.96,275.60 C504.53,274.10 505.00,270.97 505.00,268.66 C505.00,260.19 510.24,257.64 517.51,262.57 C522.48,265.95 524.43,268.30 528.13,275.42 C534.55,287.80 537.99,309.05 536.15,325.00 C535.61,329.67 535.33,333.67 535.54,333.87 C535.74,334.08 539.08,331.35 542.96,327.81 C559.20,312.99 581.26,304.02 593.75,307.17 C597.98,308.23 602.00,311.87 602.00,314.62 C602.00,315.37 599.71,318.51 596.91,321.60 C590.53,328.64 591.44,330.85 598.78,326.14 C604.29,322.61 606.16,322.30 608.43,324.57 C610.71,326.85 610.45,335.78 607.92,342.19 C604.92,349.81 597.78,360.09 591.49,365.83 C586.95,369.98 576.47,377.53 572.52,379.49 C571.92,379.79 572.06,380.26 572.87,380.62 C578.23,383.06 592.78,394.08 597.98,399.64 C605.56,407.74 608.98,414.55 608.99,421.60 C609.01,429.83 605.44,431.75 597.14,427.98 C588.51,424.06 586.25,426.10 593.54,431.24 C599.32,435.31 600.27,438.51 596.65,441.62 C586.84,450.06 560.34,445.48 541.31,432.06 C534.66,427.38 526.13,419.00 520.90,412.03 L 518.30 408.57 L 517.04 412.53 C516.35,414.72 514.01,419.84 511.84,423.92 C502.35,441.79 487.20,455.28 470.28,460.92 ZM 473.75 431.98 C476.52,433.68 483.26,432.53 490.54,429.13 C499.66,424.86 508.65,415.64 513.47,405.62 L 517.08 398.12 L 524.37 405.53 C529.85,411.10 533.51,413.81 539.14,416.49 C550.71,421.98 561.80,423.10 567.75,419.36 C570.92,417.38 570.57,415.67 566.25,412.04 L 562.50 408.88 L 566.00 409.50 C573.90,410.90 575.37,410.66 576.38,407.83 C578.63,401.51 570.59,390.22 558.11,382.15 L 551.99 378.19 L 556.54 375.53 C567.56,369.07 577.00,355.77 577.00,346.70 C577.00,340.78 575.33,339.89 569.92,342.93 C566.92,344.61 566.00,344.80 566.00,343.72 C566.00,342.94 566.94,341.46 568.09,340.42 C572.81,336.14 572.75,332.97 567.92,330.97 C560.74,327.99 546.47,333.05 534.50,342.80 L 528.50 347.69 L 528.50 335.59 C528.50,320.24 525.92,311.23 519.60,304.50 C512.85,297.31 509.00,297.63 508.05,305.46 C507.48,310.20 505.76,312.05 505.22,308.50 C504.37,302.82 503.92,302.00 501.67,302.00 C498.67,302.00 494.68,306.25 491.81,312.50 C489.83,316.82 489.52,319.07 489.55,329.00 C489.59,338.89 489.96,341.45 492.17,347.25 C493.59,350.96 494.57,354.00 494.35,354.00 C494.12,354.00 491.21,352.62 487.87,350.93 C480.82,347.38 468.49,344.00 462.59,344.01 C454.33,344.02 446.47,348.00 447.20,351.81 C447.37,352.70 449.09,354.49 451.01,355.77 C456.20,359.26 455.97,360.20 450.10,359.42 L 445.00 358.74 L 445.00 361.81 C445.00,366.62 446.60,369.70 451.86,374.96 C457.13,380.23 465.99,385.21 473.39,387.08 C475.92,387.71 478.00,388.45 478.00,388.71 C478.00,388.97 475.82,391.63 473.14,394.63 C463.85,405.06 459.20,419.25 463.53,424.03 C465.85,426.59 466.64,426.52 471.21,423.35 C475.80,420.17 477.17,420.92 474.18,424.97 C471.54,428.54 471.42,430.54 473.75,431.98 ZM 679.96 721.53 C678.64,722.73 675.91,723.52 672.21,723.78 C667.45,724.11 665.92,723.78 663.02,721.81 C659.62,719.50 658.29,717.78 652.76,708.51 C649.37,702.82 643.89,700.05 636.00,700.04 C635.72,700.04 635.44,700.03 635.17,700.03 C630.72,700.02 628.36,700.02 627.16,701.19 C625.82,702.50 625.92,705.28 626.13,711.16 C626.14,711.48 626.15,711.81 626.16,712.14 L 626.53 723.00 L 618.66 723.00 C611.54,723.00 610.86,722.83 611.53,721.25 C612.71,718.49 613.30,679.24 612.27,671.78 L 611.35 665.07 L 615.92 664.38 C618.43,664.01 629.67,663.97 640.90,664.31 C660.26,664.89 661.58,665.05 666.67,667.54 C672.88,670.58 675.00,673.85 675.00,680.37 C675.00,687.94 668.10,693.96 657.65,695.53 L 652.84 696.25 L 656.67 698.00 C658.78,698.96 662.66,702.27 665.31,705.37 C669.34,710.09 670.64,711.00 673.40,711.00 C675.43,711.00 677.39,710.23 678.52,708.98 C680.96,706.29 681.96,707.92 681.98,714.60 C682.00,718.46 681.51,720.13 679.96,721.53 ZM 353.68 715.97 L 350.50 722.99 L 342.75 722.99 C338.49,723.00 335.00,722.73 335.00,722.40 C335.00,722.08 335.85,720.61 336.88,719.15 C340.58,713.94 359.36,677.38 361.61,671.01 L 363.90 664.52 L 370.20 664.22 C373.67,664.05 378.24,664.28 380.37,664.72 C383.99,665.48 384.34,665.88 385.96,671.11 C387.62,676.48 407.20,714.62 411.19,720.25 L 413.14 723.00 L 404.57 723.00 C397.08,723.00 396.00,722.78 395.98,721.25 C395.96,720.29 394.73,717.25 393.22,714.50 L 390.49 709.50 L 373.68 709.23 L 356.86 708.95 ZM 713.67 715.99 L 710.50 722.99 L 702.75 722.99 C698.49,723.00 695.00,722.77 695.00,722.48 C695.00,722.19 696.12,720.19 697.49,718.02 C702.88,709.49 719.41,677.14 721.51,671.04 L 723.73 664.57 L 731.65 664.23 C742.02,663.78 744.55,664.76 745.46,669.64 C746.14,673.28 760.16,701.44 768.13,715.17 C770.26,718.85 772.00,722.11 772.00,722.42 C772.00,722.74 768.45,723.00 764.11,723.00 C756.33,723.00 756.21,722.96 755.54,720.25 C755.17,718.74 753.75,715.59 752.39,713.25 L 749.92 709.00 L 716.84 709.00 ZM 302.50 722.64 C296.99,724.11 281.31,724.25 273.50,722.90 C270.75,722.42 265.58,721.22 262.00,720.23 L 255.50 718.43 L 255.62 712.68 C255.68,709.52 256.01,706.66 256.34,706.33 C256.67,706.00 259.17,706.69 261.89,707.86 C276.96,714.34 301.32,714.82 305.20,708.71 C308.18,704.03 303.98,701.22 291.27,699.39 C271.51,696.54 264.30,694.24 260.07,689.43 C256.54,685.41 255.49,681.09 256.95,676.65 C259.12,670.08 266.67,665.75 279.02,664.00 C287.25,662.83 302.86,664.02 309.50,666.31 L 313.50 667.69 L 313.80 673.97 C314.08,679.69 313.94,680.19 312.30,679.49 C302.62,675.40 291.75,673.82 281.21,674.98 C272.79,675.90 270.00,677.28 270.00,680.51 C270.00,684.08 273.28,685.71 284.01,687.48 C289.23,688.33 296.18,689.47 299.47,690.00 C302.75,690.54 307.86,692.16 310.83,693.62 C315.23,695.77 316.58,697.06 318.16,700.63 C322.54,710.53 316.59,718.89 302.50,722.64 ZM 496.37 721.93 C491.61,725.67 481.20,723.98 477.63,718.89 C476.74,717.61 474.85,713.53 473.43,709.83 C471.74,705.38 469.66,702.03 467.35,700.00 C463.94,697.01 463.61,696.93 455.17,697.21 L 446.50 697.50 L 446.71 723.00 L 439.61 723.00 L 432.50 723.00 L 432.50 665.00 L 435.54 664.43 C437.22,664.11 440.37,664.00 442.54,664.18 L 446.50 664.50 L 445.77 687.00 L 454.13 686.99 C464.40,686.99 469.50,685.66 473.12,682.03 C476.65,678.50 477.60,674.70 476.23,669.57 C475.64,667.34 475.36,665.31 475.62,665.05 C475.88,664.79 478.98,664.53 482.51,664.47 C488.77,664.37 488.96,664.44 489.97,667.33 C492.23,673.82 490.53,681.41 485.85,685.72 C482.64,688.67 475.81,690.99 470.12,691.05 L 465.50 691.10 L 470.75 693.12 C474.33,694.50 477.04,696.45 479.25,699.23 C488.07,710.34 490.56,711.71 495.27,708.00 C496.67,706.90 498.08,706.00 498.41,706.00 C498.73,706.00 499.00,709.12 499.00,712.93 C499.00,719.22 498.76,720.04 496.37,721.93 ZM 569.00 721.09 C565.36,722.95 562.59,723.45 554.50,723.68 C541.21,724.07 534.98,722.09 527.77,715.20 C522.15,709.83 521.17,705.42 520.81,683.77 L 520.49 665.05 L 524.65 664.42 C526.94,664.08 530.11,664.08 531.69,664.43 L 534.56 665.06 L 534.17 681.42 C533.72,700.04 534.39,703.38 539.55,707.91 C547.99,715.32 560.99,714.13 567.70,705.32 L 570.50 701.65 L 570.50 683.28 C570.50,682.11 570.50,681.01 570.50,679.97 C570.48,669.74 570.47,665.89 572.30,664.56 C573.40,663.76 575.18,663.89 578.03,664.09 C578.50,664.12 579.01,664.16 579.55,664.19 L 584.49 664.50 L 584.17 683.00 C583.99,693.18 583.59,702.62 583.28,704.00 C581.64,711.23 576.71,717.14 569.00,721.09 ZM 626.67 690.33 C627.03,690.70 633.12,691.00 640.20,691.00 C653.08,691.00 659.28,689.73 661.20,686.71 C662.84,684.13 661.99,680.14 659.37,678.07 C656.96,676.18 655.40,676.00 641.37,676.00 L 626.00 676.00 L 626.00 682.83 C626.00,686.59 626.30,689.97 626.67,690.33 ZM 367.83 687.54 L 362.16 699.00 L 373.66 699.00 C379.99,699.00 385.00,698.66 384.80,698.25 C384.60,697.84 382.31,693.26 379.72,688.07 C377.12,682.89 375.00,678.05 375.00,677.32 C375.00,674.16 373.14,676.81 367.83,687.54 ZM 727.77 687.59 L 722.05 699.00 L 744.89 699.00 L 739.56 687.95 C736.63,681.87 734.07,676.74 733.87,676.54 C733.67,676.34 730.92,681.31 727.77,687.59 Z" fill="rgb(226,127,154)"/>
<path d="M 473.75 431.98 C471.42,430.54 471.54,428.54 474.18,424.97 C477.17,420.92 475.80,420.17 471.21,423.35 C466.64,426.52 465.85,426.59 463.53,424.03 C459.20,419.25 463.85,405.06 473.14,394.63 C475.82,391.63 478.00,388.97 478.00,388.71 C478.00,388.45 475.92,387.71 473.39,387.08 C465.99,385.21 457.13,380.23 451.86,374.96 C446.60,369.70 445.00,366.62 445.00,361.81 L 445.00 358.74 L 450.10 359.42 C455.97,360.20 456.20,359.26 451.01,355.77 C449.09,354.49 447.37,352.70 447.20,351.81 C446.47,348.00 454.33,344.02 462.59,344.01 C468.49,344.00 480.82,347.38 487.87,350.93 C491.21,352.62 494.12,354.00 494.35,354.00 C494.57,354.00 493.59,350.96 492.17,347.25 C489.96,341.45 489.59,338.89 489.55,329.00 C489.52,319.07 489.83,316.82 491.81,312.50 C494.68,306.25 498.67,302.00 501.67,302.00 C503.92,302.00 504.37,302.82 505.22,308.50 C505.76,312.05 507.48,310.20 508.05,305.46 C509.00,297.63 512.85,297.31 519.60,304.50 C525.92,311.23 528.50,320.24 528.50,335.59 L 528.50 347.69 L 534.50 342.80 C546.47,333.05 560.74,327.99 567.92,330.97 C572.75,332.97 572.81,336.14 568.09,340.42 C566.94,341.46 566.00,342.94 566.00,343.72 C566.00,344.80 566.92,344.61 569.92,342.93 C575.33,339.89 577.00,340.78 577.00,346.70 C577.00,355.77 567.56,369.07 556.54,375.53 L 551.99 378.19 L 558.11 382.15 C570.59,390.22 578.63,401.51 576.38,407.83 C575.37,410.66 573.90,410.90 566.00,409.50 L 562.50 408.88 L 566.25 412.04 C570.57,415.67 570.92,417.38 567.75,419.36 C561.80,423.10 550.71,421.98 539.14,416.49 C533.51,413.81 529.85,411.10 524.37,405.53 L 517.08 398.12 L 513.47 405.62 C508.65,415.64 499.66,424.86 490.54,429.13 C483.26,432.53 476.52,433.68 473.75,431.98 ZM 512.72 361.50 L 513.49 367.50 L 513.80 361.02 C514.03,356.17 514.59,354.10 516.05,352.74 C518.56,350.40 518.54,347.36 516.00,346.00 C514.58,345.24 513.42,345.24 512.00,346.00 C509.74,347.21 509.60,348.09 510.98,352.43 C511.51,354.12 512.30,358.20 512.72,361.50 ZM 507.12 368.06 C508.29,370.78 509.62,373.00 510.08,373.00 C510.54,373.00 509.81,370.80 508.46,368.10 C505.75,362.70 505.47,360.93 507.08,359.32 C507.67,358.73 508.01,356.95 507.83,355.37 C507.58,353.20 506.90,352.42 505.06,352.16 C500.40,351.50 498.87,357.79 503.12,360.07 C504.16,360.62 505.00,361.53 505.00,362.10 C505.00,362.67 505.96,365.35 507.12,368.06 ZM 523.05 370.43 C522.27,371.38 522.17,372.00 522.81,372.00 C523.39,372.00 524.15,371.09 524.51,369.97 C524.86,368.86 526.27,367.22 527.63,366.32 C531.34,363.89 530.59,359.61 526.38,359.20 C522.52,358.82 521.47,360.90 523.16,365.56 C524.11,368.19 524.09,369.19 523.05,370.43 ZM 491.75 377.75 C492.26,379.14 493.38,379.27 496.79,378.36 C498.96,377.78 498.99,377.65 497.38,375.87 C494.48,372.66 490.38,374.02 491.75,377.75 Z" fill="rgb(241,194,211)"/>
<path d="M 0.00 512.00 L 0.00 0.00 L 512.00 0.00 L 1024.00 0.00 L 1024.00 512.00 L 1024.00 1024.00 L 512.00 1024.00 L 0.00 1024.00 L 0.00 512.00 ZM 528.40 797.75 C527.79,785.11 527.86,784.37 529.95,781.75 C531.58,779.71 533.03,779.00 535.57,779.00 C538.82,779.00 539.00,778.82 539.00,775.50 C539.00,772.41 538.70,772.00 536.43,772.00 C533.30,772.00 530.16,773.60 527.82,776.40 L 526.07 778.50 L 526.03 776.25 C526.01,774.42 525.43,774.00 523.00,774.00 C521.18,774.00 520.00,774.52 520.00,775.32 C520.00,778.12 523.10,808.56 523.51,809.75 C523.74,810.44 525.09,811.00 526.49,811.00 L 529.05 811.00 L 528.40 797.75 ZM 489.39 808.25 C490.43,804.83 497.00,774.66 496.75,774.47 C496.61,774.37 495.31,774.00 493.86,773.65 C491.60,773.11 491.12,773.40 490.55,775.66 L 489.88 778.31 L 486.93 774.73 C479.37,765.56 463.55,768.04 458.12,779.25 C454.43,786.87 455.51,795.73 460.81,801.34 C466.39,807.23 474.45,808.89 481.02,805.49 L 484.27 803.81 L 483.78 806.37 C483.51,807.78 483.79,809.14 484.40,809.39 C486.81,810.38 488.89,809.91 489.39,808.25 ZM 577.57 798.88 C577.87,798.40 575.84,791.77 573.06,784.16 C570.28,776.54 568.00,770.03 568.00,769.70 C568.00,769.36 569.83,768.53 572.06,767.86 C575.74,766.76 576.07,766.40 575.48,764.07 C574.63,760.68 574.85,760.75 570.52,762.56 C568.44,763.43 566.40,763.77 565.99,763.32 C565.58,762.87 564.33,760.03 563.21,757.00 C561.48,752.34 560.82,751.54 558.90,751.77 C557.65,751.92 556.39,752.28 556.09,752.57 C555.66,753.01 557.15,758.00 559.75,764.78 C560.05,765.58 558.66,766.69 556.12,767.69 C551.92,769.33 551.31,770.36 552.96,772.97 C553.76,774.23 554.42,774.25 557.54,773.12 C559.55,772.39 561.58,772.18 562.04,772.65 C562.51,773.12 564.67,778.45 566.85,784.50 C573.04,801.70 572.64,800.91 574.96,800.30 C576.10,800.00 577.28,799.36 577.57,798.88 ZM 425.98 782.39 C430.61,780.54 430.92,779.65 427.67,777.52 C425.81,776.30 424.69,776.21 422.23,777.07 C419.69,777.96 418.32,777.79 414.64,776.16 C405.10,771.95 404.18,760.17 412.91,754.28 C421.14,748.73 432.00,754.17 432.00,763.84 C432.00,765.89 432.78,767.28 434.59,768.46 C437.87,770.62 438.39,770.04 438.36,764.22 C438.32,753.87 431.72,746.83 421.45,746.18 C409.33,745.41 401.00,753.12 401.00,765.12 C401.00,772.69 404.62,778.45 411.34,781.58 C417.41,784.41 420.52,784.58 425.98,782.39 ZM 617.51 779.14 C625.32,775.59 630.56,766.88 627.94,761.81 C624.12,754.40 620.62,753.57 609.56,757.44 C604.68,759.15 602.10,759.59 600.87,758.93 C594.42,755.48 600.58,746.95 608.45,748.43 C610.90,748.88 612.09,748.56 613.45,747.05 C615.19,745.13 615.14,745.03 611.65,743.37 C608.55,741.89 607.50,741.83 603.83,742.93 C601.51,743.63 598.14,745.66 596.36,747.44 C591.20,752.60 590.70,758.16 594.99,762.76 C598.23,766.24 601.70,766.60 608.67,764.17 C618.41,760.77 623.00,761.52 623.00,766.53 C623.00,768.75 620.09,771.93 616.22,773.93 C614.45,774.84 613.15,774.82 610.45,773.85 C607.29,772.70 606.77,772.79 604.80,774.76 L 602.63 776.93 L 607.06 778.94 C612.47,781.40 612.53,781.40 617.51,779.14 ZM 302.50 722.64 C316.59,718.89 322.54,710.53 318.16,700.63 C316.58,697.06 315.23,695.77 310.83,693.62 C307.86,692.16 302.75,690.54 299.47,690.00 C296.18,689.47 289.23,688.33 284.01,687.48 C273.28,685.71 270.00,684.08 270.00,680.51 C270.00,677.28 272.79,675.90 281.21,674.98 C291.75,673.82 302.62,675.40 312.30,679.49 C313.94,680.19 314.08,679.69 313.80,673.97 L 313.50 667.69 L 309.50 666.31 C302.86,664.02 287.25,662.83 279.02,664.00 C266.67,665.75 259.12,670.08 256.95,676.65 C255.49,681.09 256.54,685.41 260.07,689.43 C264.30,694.24 271.51,696.54 291.27,699.39 C303.98,701.22 308.18,704.03 305.20,708.71 C301.32,714.82 276.96,714.34 261.89,707.86 C259.17,706.69 256.67,706.00 256.34,706.33 C256.01,706.66 255.68,709.52 255.62,712.68 L 255.50 718.43 L 262.00 720.23 C265.58,721.22 270.75,722.42 273.50,722.90 C281.31,724.25 296.99,724.11 302.50,722.64 ZM 496.37 721.93 C498.76,720.04 499.00,719.22 499.00,712.93 C499.00,709.12 498.73,706.00 498.41,706.00 C498.08,706.00 496.67,706.90 495.27,708.00 C490.56,711.71 488.07,710.34 479.25,699.23 C477.04,696.45 474.33,694.50 470.75,693.12 L 465.50 691.10 L 470.12 691.05 C475.81,690.99 482.64,688.67 485.85,685.72 C490.53,681.41 492.23,673.82 489.97,667.33 C488.96,664.44 488.77,664.37 482.51,664.47 C478.98,664.53 475.88,664.79 475.62,665.05 C475.36,665.31 475.64,667.34 476.23,669.57 C477.60,674.70 476.65,678.50 473.12,682.03 C469.50,685.66 464.40,686.99 454.13,686.99 L 445.77 687.00 L 446.13 675.75 L 446.50 664.50 L 442.54 664.18 C440.37,664.00 437.22,664.11 435.54,664.43 L 432.50 665.00 L 432.50 694.00 L 432.50 723.00 L 439.61 723.00 L 446.71 723.00 L 446.61 710.25 L 446.50 697.50 L 455.17 697.21 C463.61,696.93 463.94,697.01 467.35,700.00 C469.66,702.03 471.74,705.38 473.43,709.83 C474.85,713.53 476.74,717.61 477.63,718.89 C481.20,723.98 491.61,725.67 496.37,721.93 ZM 569.00 721.09 C576.71,717.14 581.64,711.23 583.28,704.00 C583.59,702.62 583.99,693.18 584.17,683.00 L 584.49 664.50 L 579.55 664.19 C569.93,663.59 570.50,662.39 570.50,683.28 L 570.50 701.65 L 567.70 705.32 C560.99,714.13 547.99,715.32 539.55,707.91 C534.39,703.38 533.72,700.04 534.17,681.42 L 534.56 665.06 L 531.69 664.43 C530.11,664.08 526.94,664.08 524.65,664.42 L 520.49 665.05 L 520.81 683.77 C521.17,705.42 522.15,709.83 527.77,715.20 C534.98,722.09 541.21,724.07 554.50,723.68 C562.59,723.45 565.36,722.95 569.00,721.09 ZM 679.96 721.53 C681.51,720.13 682.00,718.46 681.98,714.60 C681.96,707.92 680.96,706.29 678.52,708.98 C677.39,710.23 675.43,711.00 673.40,711.00 C670.64,711.00 669.34,710.09 665.31,705.37 C662.66,702.27 658.78,698.96 656.67,698.00 L 652.84 696.25 L 657.65 695.53 C668.10,693.96 675.00,687.94 675.00,680.37 C675.00,673.85 672.88,670.58 666.67,667.54 C661.58,665.05 660.26,664.89 640.90,664.31 C629.67,663.97 618.43,664.01 615.92,664.38 L 611.35 665.07 L 612.27 671.78 C613.30,679.24 612.71,718.49 611.53,721.25 C610.86,722.83 611.54,723.00 618.66,723.00 L 626.53 723.00 L 626.16 712.14 C625.73,699.68 625.45,700.02 636.00,700.04 C643.89,700.05 649.37,702.82 652.76,708.51 C658.29,717.78 659.62,719.50 663.02,721.81 C665.92,723.78 667.45,724.11 672.21,723.78 C675.91,723.52 678.64,722.73 679.96,721.53 ZM 353.68 715.97 L 356.86 708.95 L 373.68 709.23 L 390.49 709.50 L 393.22 714.50 C394.73,717.25 395.96,720.29 395.98,721.25 C396.00,722.78 397.08,723.00 404.57,723.00 L 413.14 723.00 L 411.19 720.25 C407.20,714.62 387.62,676.48 385.96,671.11 C384.34,665.88 383.99,665.48 380.37,664.72 C378.24,664.28 373.67,664.05 370.20,664.22 L 363.90 664.52 L 361.61 671.01 C359.36,677.38 340.58,713.94 336.88,719.15 C335.85,720.61 335.00,722.08 335.00,722.40 C335.00,722.73 338.49,723.00 342.75,722.99 L 350.50 722.99 L 353.68 715.97 ZM 713.67 715.99 L 716.84 709.00 L 733.38 709.00 L 749.92 709.00 L 752.39 713.25 C753.75,715.59 755.17,718.74 755.54,720.25 C756.21,722.96 756.33,723.00 764.11,723.00 C768.45,723.00 772.00,722.74 772.00,722.42 C772.00,722.11 770.26,718.85 768.13,715.17 C760.16,701.44 746.14,673.28 745.46,669.64 C744.55,664.76 742.02,663.78 731.65,664.23 L 723.73 664.57 L 721.51 671.04 C719.41,677.14 702.88,709.49 697.49,718.02 C696.12,720.19 695.00,722.19 695.00,722.48 C695.00,722.77 698.49,723.00 702.75,722.99 L 710.50 722.99 L 713.67 715.99 ZM 446.84 640.01 C454.67,635.83 461.24,628.65 464.03,621.20 C467.01,613.26 466.56,600.68 463.04,593.50 C459.73,586.75 452.20,579.45 445.24,576.22 C440.48,574.01 438.13,573.57 431.50,573.61 C421.47,573.67 413.99,576.40 407.26,582.46 C400.27,588.74 396.76,596.41 396.21,606.63 C395.67,616.48 397.34,622.29 402.78,629.50 C410.23,639.37 420.51,644.19 433.03,643.67 C439.29,643.41 441.60,642.80 446.84,640.01 ZM 618.99 640.43 C631.25,634.92 639.36,622.24 639.40,608.50 C639.45,591.56 625.10,575.34 608.29,573.35 C597.95,572.12 585.10,576.83 578.33,584.32 C569.72,593.85 566.57,609.58 570.96,621.20 C578.09,640.10 600.08,648.91 618.99,640.43 ZM 648.80 564.19 C651.88,562.43 654.99,557.16 655.00,553.70 C655.00,550.14 652.65,545.57 649.78,543.56 C647.80,542.17 635.09,542.00 532.03,541.99 C468.49,541.98 414.78,541.69 412.68,541.35 C410.29,540.95 408.30,539.87 407.37,538.45 C406.17,536.60 400.04,514.40 400.01,511.77 C400.00,511.37 451.19,510.92 513.75,510.77 C622.36,510.51 627.72,510.41 632.36,508.62 C637.78,506.52 646.92,498.06 648.79,493.42 C649.44,491.81 657.89,450.67 667.57,402.00 C687.27,303.00 686.91,305.80 681.21,293.66 C675.39,281.26 667.81,275.54 657.19,275.52 C651.10,275.50 650.71,275.65 647.31,279.37 C644.02,282.95 643.81,283.57 644.39,287.79 C645.17,293.50 646.93,295.47 653.39,297.84 C657.27,299.26 658.92,300.53 660.25,303.10 C662.71,307.89 662.47,311.72 658.49,331.27 C656.56,340.75 649.78,374.60 643.42,406.50 C626.96,489.06 627.96,484.99 623.91,486.13 C622.58,486.50 570.53,486.85 508.23,486.90 L 394.96 487.00 L 393.98 484.75 C393.45,483.51 380.80,430.08 365.88,366.00 C350.96,301.92 337.87,247.60 336.78,245.28 C333.91,239.14 327.67,232.51 322.24,229.83 C317.57,227.54 317.02,227.50 285.27,227.50 L 253.04 227.50 L 249.77 230.77 C247.07,233.47 246.50,234.80 246.50,238.45 C246.50,243.85 249.31,248.02 254.09,249.69 C256.40,250.50 266.45,250.91 285.23,250.94 C312.86,251.00 312.96,251.01 314.40,253.25 C316.09,255.86 316.91,259.17 333.01,328.50 C362.97,457.46 383.31,542.83 384.97,546.62 C388.73,555.21 397.24,562.35 406.41,564.62 C414.00,566.49 645.48,566.08 648.80,564.19 ZM 470.28 460.92 C487.20,455.28 502.35,441.79 511.84,423.92 C514.01,419.84 516.35,414.72 517.04,412.53 L 518.30 408.57 L 520.90 412.03 C526.13,419.00 534.66,427.38 541.31,432.06 C560.34,445.48 586.84,450.06 596.65,441.62 C600.27,438.51 599.32,435.31 593.54,431.24 C586.25,426.10 588.51,424.06 597.14,427.98 C605.44,431.75 609.01,429.83 608.99,421.60 C608.98,414.55 605.56,407.74 597.98,399.64 C592.78,394.08 578.23,383.06 572.87,380.62 C572.06,380.26 571.92,379.79 572.52,379.49 C576.47,377.53 586.95,369.98 591.49,365.83 C597.78,360.09 604.92,349.81 607.92,342.19 C610.45,335.78 610.71,326.85 608.43,324.57 C606.16,322.30 604.29,322.61 598.78,326.14 C591.44,330.85 590.53,328.64 596.91,321.60 C599.71,318.51 602.00,315.37 602.00,314.62 C602.00,311.87 597.98,308.23 593.75,307.17 C581.26,304.02 559.20,312.99 542.96,327.81 C539.08,331.35 535.74,334.08 535.54,333.87 C535.33,333.67 535.61,329.67 536.15,325.00 C537.99,309.05 534.55,287.80 528.13,275.42 C524.43,268.30 522.48,265.95 517.51,262.57 C510.24,257.64 505.00,260.19 505.00,268.66 C505.00,270.97 504.53,274.10 503.96,275.60 C502.53,279.36 500.94,277.52 499.89,270.88 C498.46,261.84 494.59,260.74 487.86,267.48 C480.19,275.15 476.03,288.34 476.03,305.00 C476.04,319.24 477.98,327.77 484.62,342.63 C484.89,343.25 480.91,341.59 475.76,338.93 C461.14,331.39 450.96,328.71 436.50,328.60 C425.79,328.51 423.98,328.75 419.70,330.86 C409.94,335.67 409.69,341.30 419.01,346.50 C422.02,348.19 424.63,350.34 424.82,351.28 C425.22,353.39 424.43,353.42 419.00,351.50 C413.60,349.59 411.53,349.61 409.57,351.57 C402.87,358.27 418.24,378.21 437.21,387.44 C442.32,389.92 449.53,392.70 453.23,393.62 L 459.96 395.28 L 454.30 401.39 C441.93,414.75 434.74,428.88 434.66,440.00 C434.61,447.35 435.98,450.66 439.63,452.05 C442.51,453.14 444.77,452.21 449.78,447.85 C451.59,446.28 454.01,445.00 455.16,445.00 C457.47,445.00 457.80,444.26 451.56,453.03 C449.27,456.24 448.85,457.54 449.66,458.83 C452.49,463.38 460.50,464.19 470.28,460.92 ZM 469.32 800.06 C454.77,793.45 463.61,771.27 478.95,775.87 C489.43,779.01 489.95,795.48 479.72,800.33 C475.31,802.42 474.47,802.40 469.32,800.06 ZM 626.67 690.33 C626.30,689.97 626.00,686.59 626.00,682.83 L 626.00 676.00 L 641.37 676.00 C655.40,676.00 656.96,676.18 659.37,678.07 C661.99,680.14 662.84,684.13 661.20,686.71 C659.28,689.73 653.08,691.00 640.20,691.00 C633.12,691.00 627.03,690.70 626.67,690.33 ZM 367.83 687.54 C373.14,676.81 375.00,674.16 375.00,677.32 C375.00,678.05 377.12,682.89 379.72,688.07 C382.31,693.26 384.60,697.84 384.80,698.25 C385.00,698.66 379.99,699.00 373.66,699.00 L 362.16 699.00 L 367.83 687.54 ZM 727.77 687.59 C730.92,681.31 733.67,676.34 733.87,676.54 C734.07,676.74 736.63,681.87 739.56,687.95 L 744.89 699.00 L 733.47 699.00 L 722.05 699.00 L 727.77 687.59 ZM 427.50 619.58 C420.98,616.70 417.95,610.42 420.35,604.76 C422.34,600.04 425.31,597.83 430.43,597.25 C434.56,596.79 435.24,597.04 438.41,600.21 C443.01,604.81 443.86,608.39 441.41,612.86 C438.00,619.07 432.43,621.76 427.50,619.58 ZM 600.07 619.27 C595.17,616.74 592.73,612.96 592.73,607.90 C592.73,604.28 593.27,603.14 596.35,600.32 C601.03,596.03 606.37,595.75 610.91,599.57 C617.15,604.83 617.21,613.25 611.04,617.81 C606.87,620.89 603.96,621.28 600.07,619.27 ZM 491.75 377.75 C490.38,374.02 494.48,372.66 497.38,375.87 C498.99,377.65 498.96,377.78 496.79,378.36 C493.38,379.27 492.26,379.14 491.75,377.75 ZM 507.12 368.06 C505.96,365.35 505.00,362.67 505.00,362.10 C505.00,361.53 504.16,360.62 503.12,360.07 C498.87,357.79 500.40,351.50 505.06,352.16 C506.90,352.42 507.58,353.20 507.83,355.37 C508.01,356.95 507.67,358.73 507.08,359.32 C505.47,360.93 505.75,362.70 508.46,368.10 C509.81,370.80 510.54,373.00 510.08,373.00 C509.62,373.00 508.29,370.78 507.12,368.06 ZM 523.05 370.43 C524.09,369.19 524.11,368.19 523.16,365.56 C521.47,360.90 522.52,358.82 526.38,359.20 C530.59,359.61 531.34,363.89 527.63,366.32 C526.27,367.22 524.86,368.86 524.51,369.97 C524.15,371.09 523.39,372.00 522.81,372.00 C522.17,372.00 522.27,371.38 523.05,370.43 ZM 512.72 361.50 C512.30,358.20 511.51,354.12 510.98,352.43 C509.60,348.09 509.74,347.21 512.00,346.00 C513.42,345.24 514.58,345.24 516.00,346.00 C518.54,347.36 518.56,350.40 516.05,352.74 C514.59,354.10 514.03,356.17 513.80,361.02 L 513.49 367.50 L 512.72 361.50 Z" fill="rgb(254,254,254)"/>
</g>
</svg>